<svg id="Layer_1" data-name="Layer 1" xmlns="http://www.w3.org/2000/svg" xmlns:xlink="http://www.w3.org/1999/xlink" viewBox="0 0 325.24 97.2"><defs><style>.cls-1{fill:url(#New_Gradient_Swatch_1);}.cls-2{fill:url(#New_Gradient_Swatch_1-2);}.cls-3{fill:url(#New_Gradient_Swatch_1-3);}.cls-4{fill:url(#New_Gradient_Swatch_1-4);}.cls-5{fill:url(#New_Gradient_Swatch_1-5);}.cls-6{fill:url(#New_Gradient_Swatch_1-6);}</style><linearGradient id="New_Gradient_Swatch_1" x1="160.04" y1="-269.13" x2="485.31" y2="-269.13" gradientTransform="matrix(1, 0, 0, -1, -160.04, -212.92)" gradientUnits="userSpaceOnUse"><stop offset="0" stop-color="#0012ec"/><stop offset="0.5" stop-color="#961ea7"/><stop offset="1" stop-color="#fd5631"/></linearGradient><linearGradient id="New_Gradient_Swatch_1-2" x1="160.05" y1="-268.65" x2="485.32" y2="-268.65" xlink:href="#New_Gradient_Swatch_1"/><linearGradient id="New_Gradient_Swatch_1-3" x1="160.05" y1="-224.94" x2="485.32" y2="-224.94" xlink:href="#New_Gradient_Swatch_1"/><linearGradient id="New_Gradient_Swatch_1-4" x1="160.05" y1="-277.79" x2="485.32" y2="-277.79" xlink:href="#New_Gradient_Swatch_1"/><linearGradient id="New_Gradient_Swatch_1-5" x1="160.05" y1="-263.42" x2="485.32" y2="-263.42" xlink:href="#New_Gradient_Swatch_1"/><linearGradient id="New_Gradient_Swatch_1-6" x1="160.05" y1="-277.77" x2="485.32" y2="-277.77" xlink:href="#New_Gradient_Swatch_1"/></defs><title>thrifter-logo</title><path class="cls-1" d="M34.52,81.59A8.06,8.06,0,0,1,29.13,80q-1.8-1.55-1.8-5.52V49H39.6V34.36H27.4V16.14H12.52v8.57a10.48,10.48,0,0,1-2.29,6.88q-2.3,2.79-7.13,2.79H0V49H11V77.4q0,8.92,5.21,13.88t14.13,5A50.07,50.07,0,0,0,36,96a15,15,0,0,0,3.68-.56V81.19a9,9,0,0,1-2.11.28Q36,81.6,34.52,81.59Z" transform="translate(0 -0.01)"/><path class="cls-2" d="M93.35,39.82a20.06,20.06,0,0,0-7.07-5.11,24.49,24.49,0,0,0-10.1-2,27.82,27.82,0,0,0-8.92,1.55A16.43,16.43,0,0,0,59.7,39.4V16.1H43.21V95.31H59.7V59.53A13.51,13.51,0,0,1,62.92,51a10.3,10.3,0,0,1,8.18-3.41q6,0,8.61,3.47a13.83,13.83,0,0,1,2.67,8.68V95.35h16.5V57a32.07,32.07,0,0,0-1.36-9.42A20.94,20.94,0,0,0,93.35,39.82Z" transform="translate(0 -0.01)"/><path class="cls-3" d="M143.57,23.71c5.25,1.91,12.54-4.88,14.45-10.13a10.11,10.11,0,1,0-19-6.92C137.11,11.89,138.33,21.78,143.57,23.71Z" transform="translate(0 -0.01)"/><path class="cls-4" d="M319.71,34.36a20,20,0,0,0-3.75.18,13.37,13.37,0,0,0-3.84,1.06,16.22,16.22,0,0,0-4.59,2.91,14.5,14.5,0,0,0-3.53,4.9v-9H288v61h16.46V66.18a22.56,22.56,0,0,1,1.3-8.24,14.37,14.37,0,0,1,3.41-5.27,12.39,12.39,0,0,1,5-2.85,20.78,20.78,0,0,1,6.07-.87h5V34.36Z" transform="translate(0 -0.01)"/><path class="cls-5" d="M221.9,81.59A8.06,8.06,0,0,1,216.51,80q-1.8-1.55-1.8-5.52V49H227V34.36H214.75V16.14H199.88v8.57a10.48,10.48,0,0,1-2.29,6.88q-2.3,2.79-7.13,2.79h-8.22V27.71A9.43,9.43,0,0,1,183,23.5,7,7,0,0,1,185,21a7.5,7.5,0,0,1,2.79-1.3,12.65,12.65,0,0,1,2.63-.35V4.85c-.87-.07-1.76-.11-2.69-.11a24.87,24.87,0,0,0-9.17,1.61,19.84,19.84,0,0,0-7,4.59,20.06,20.06,0,0,0-4.46,7.13,26.6,26.6,0,0,0-1.55,9.36v6.94H134.2a20,20,0,0,0-3.75.18,13.37,13.37,0,0,0-3.84,1.06A16.22,16.22,0,0,0,122,38.52a14.5,14.5,0,0,0-3.53,4.9v-9h-16v61h16.49V66.18a22.56,22.56,0,0,1,1.3-8.24,14.37,14.37,0,0,1,3.41-5.27,12.39,12.39,0,0,1,5-2.85,20.78,20.78,0,0,1,6.1-.86h4.83v46.4h16.49V49h9.54V95.35h16.61V49h16.15V77.38q0,8.92,5.21,13.88t14.13,5a50,50,0,0,0,5.61-.31,15,15,0,0,0,3.68-.56V81.19a9,9,0,0,1-2.11.28Q223.46,81.6,221.9,81.59Z" transform="translate(0 -0.01)"/><path class="cls-6" d="M255,32.5a28.84,28.84,0,0,0-11.28,2.29,29.78,29.78,0,0,0-9.61,6.45,30.88,30.88,0,0,0-6.65,10.1A34.14,34.14,0,0,0,225,64.6a35.33,35.33,0,0,0,2.54,13.76,30.54,30.54,0,0,0,6.94,10.29,29.07,29.07,0,0,0,10,6.38,33.55,33.55,0,0,0,12,2.17,32.2,32.2,0,0,0,10.23-1.55,28.37,28.37,0,0,0,8.12-4.15,26,26,0,0,0,5.89-6.14,25.37,25.37,0,0,0,3.52-7.46h-16a14.62,14.62,0,0,1-2.49,2.56q-3.29,2.6-9.11,2.6a16,16,0,0,1-5.83-1A15.07,15.07,0,0,1,246,79.15a15.32,15.32,0,0,1-3.35-4.4,13.12,13.12,0,0,1-1.43-5.52h43.62q0-.25.12-1.8t.12-3.28q0-14.75-7.93-23.18T255,32.5ZM241.63,58a12.13,12.13,0,0,1,1.07-4.21,12.61,12.61,0,0,1,2.67-3.84,14,14,0,0,1,4.21-2.85,13.76,13.76,0,0,1,5.7-1.12,15.67,15.67,0,0,1,6,1,12.84,12.84,0,0,1,4.18,2.74,10.63,10.63,0,0,1,2.48,3.84,15,15,0,0,1,.93,4.4Z" transform="translate(0 -0.01)"/></svg>